<?xml version="1.0" encoding="utf-8"?>
<!-- Generator: Adobe Illustrator 16.0.0, SVG Export Plug-In . SVG Version: 6.00 Build 0)  -->
<!DOCTYPE svg PUBLIC "-//W3C//DTD SVG 1.1//EN" "http://www.w3.org/Graphics/SVG/1.1/DTD/svg11.dtd">
<svg version="1.1" id="Layer_1" xmlns="http://www.w3.org/2000/svg" xmlns:xlink="http://www.w3.org/1999/xlink" x="0px" y="0px"
	 width="268.801px" height="268.8px" viewBox="505.6 185.6 268.801 268.8" enable-background="new 505.6 185.6 268.801 268.8"
	 xml:space="preserve">
<title>Search v2.6</title>
<desc>Created with Sketch.</desc>
<g>
	<g>
		<path d="M766.902,410.698c9.997,9.997,9.997,26.206,0,36.204c-9.998,9.997-26.207,9.997-36.204,0l-52.835-52.835
			c-3.745-3.745-10.524-4.692-15.238-2.173c0,0,0.642-0.153-3.481,1.709c-13.647,6.165-28.795,9.597-44.743,9.597
			c-60.089,0-108.801-48.712-108.801-108.8S554.312,185.6,614.4,185.6c60.088,0,108.8,48.711,108.8,108.8
			c0,16.002-3.455,31.197-9.659,44.88c-1.847,4.074-1.662,3.381-1.662,3.381c-2.536,4.651-1.554,11.46,2.188,15.202L766.902,410.698
			z M614.4,355.2c33.578,0,60.8-27.222,60.8-60.8s-27.222-60.8-60.8-60.8c-33.579,0-60.801,27.221-60.801,60.8
			S580.821,355.2,614.4,355.2z"/>
	</g>
</g>
</svg>
