<svg style="display:none;">
	<symbol viewBox="511.783 190.845 256.025 256.922" id="arrow">
		<title>Extra Extra Bold Super Soft Arrow Right</title>
		<desc>Created with Sketch.</desc>
			<g> <g> <path d="M761.346,334.783c8.671-8.803,8.604-23.088-0.123-31.879L657.882,198.803c-24.134-24.134-60.339,12.07-36.204,36.205
				l45.086,45.086c7.519,7.519,4.991,13.615-5.522,13.615H537.383c-14.145,0-25.6,11.456-25.6,25.6
				c0,14.138,11.455,25.601,25.6,25.601h123.858c10.569,0,13.076,6.06,5.522,13.613l-45.086,45.081
				c-24.135,24.134,12.07,60.339,36.204,36.204L761.346,334.783z"/>
			</g> </g>
	</symbol>
	<symbol viewBox="505.6 185.6 268.801 268.8" id="mag-glass">
		<title>Search v2.6</title>
		<desc>Created with Sketch.</desc>
		<g> <g> <path d="M766.902,410.698c9.997,9.997,9.997,26.206,0,36.204c-9.998,9.997-26.207,9.997-36.204,0l-52.835-52.835
			c-3.745-3.745-10.524-4.692-15.238-2.173c0,0,0.642-0.153-3.481,1.709c-13.647,6.165-28.795,9.597-44.743,9.597
			c-60.089,0-108.801-48.712-108.801-108.8S554.312,185.6,614.4,185.6c60.088,0,108.8,48.711,108.8,108.8
			c0,16.002-3.455,31.197-9.659,44.88c-1.847,4.074-1.662,3.381-1.662,3.381c-2.536,4.651-1.554,11.46,2.188,15.202L766.902,410.698
			z M614.4,355.2c33.578,0,60.8-27.222,60.8-60.8s-27.222-60.8-60.8-60.8c-33.579,0-60.801,27.221-60.801,60.8
			S580.821,355.2,614.4,355.2z"/>
		</g> </g>
	</symbol>
</svg>